# xmcd CD database file
#
# Track frame offsets:
#	150
#	10860
#	24248
#	37019
#	48682
#	59125
#	67287
#	79874
#	92347
#	102026
#	111197
#	132987
#	143587
#	153644
#	164980
#	177899
#	188475
#	199078
#
# Disc length: 2812 seconds
#
# Revision: 0
# Processed by: cddbd v1.5.2PL0 Copyright (c) Steve Scherf et al.
# Submitted via: CDex 1.51
#
DISCID=fd0afa12
DTITLE=Nev Nicholls - The Great Nev Nicholls CD1
DYEAR=2004
DGENRE=Country
TTITLE0=King Of The Road
TTITLE1=The Rollin's All Gone Out Of This Rollin Stone
TTITLE2=Rigs And Road
TTITLE3=Truckers Paradise
TTITLE4=Mother Trucker
TTITLE5=Mighty Moonbi Range
TTITLE6=Make My Coffee Black
TTITLE7=The Great South State Truck Stop Disaster
TTITLE8=Truck Me Dead
TTITLE9=Country Run
TTITLE10=Little Trucker
TTITLE11=Give Me Forty Acres
TTITLE12=Anything Leaving Town To-Day
TTITLE13=Footballin' Truck Driving Man
TTITLE14=Tiger In My Strides
TTITLE15=CB Radio
TTITLE16=Travellin Stereo
TTITLE17=Her And The Car And The Mobile Home
EXTD=YEAR: 2004
EXTT0=
EXTT1=
EXTT2=
EXTT3=
EXTT4=
EXTT5=
EXTT6=
EXTT7=
EXTT8=
EXTT9=
EXTT10=
EXTT11=
EXTT12=
EXTT13=
EXTT14=
EXTT15=
EXTT16=
EXTT17=
PLAYORDER=
